<?xml version="1.0" encoding="UTF-8" standalone="no"?>
<!DOCTYPE svg PUBLIC "-//W3C//DTD SVG 1.1//EN"
 "http://www.w3.org/Graphics/SVG/1.1/DTD/svg11.dtd">
<!-- Generated by graphviz version 2.26.3 (20100126.1600)
 -->
<!-- Title: G Pages: 1 -->
<svg width="682pt" height="370pt"
 viewBox="0.00 0.00 682.00 370.00" xmlns="http://www.w3.org/2000/svg" xmlns:xlink="http://www.w3.org/1999/xlink">
<g id="graph1" class="graph" transform="scale(1 1) rotate(0) translate(4 366)">
<title>G</title>
<polygon fill="white" stroke="white" points="-4,5 -4,-366 679,-366 679,5 -4,5"/>
<g id="graph2" class="cluster"><title>cluster_Data</title>
<polyline fill="none" stroke="gray" points="20,-98 654,-98 "/>
<path fill="none" stroke="gray" d="M654,-98C660,-98 666,-104 666,-110"/>
<polyline fill="none" stroke="gray" points="666,-110 666,-342 "/>
<path fill="none" stroke="gray" d="M666,-342C666,-348 660,-354 654,-354"/>
<polyline fill="none" stroke="gray" points="654,-354 20,-354 "/>
<path fill="none" stroke="gray" d="M20,-354C14,-354 8,-348 8,-342"/>
<polyline fill="none" stroke="gray" points="8,-342 8,-110 "/>
<path fill="none" stroke="gray" d="M8,-110C8,-104 14,-98 20,-98"/>
<text text-anchor="middle" x="337" y="-340.1" font-family="Times Roman,serif" font-size="11.00" fill="gray">Data</text>
</g>
<g id="graph3" class="cluster"><title>cluster_Data\LinkedLists</title>
<polyline fill="none" stroke="gray" points="522,-206 646,-206 "/>
<path fill="none" stroke="gray" d="M646,-206C652,-206 658,-212 658,-218"/>
<polyline fill="none" stroke="gray" points="658,-218 658,-268 "/>
<path fill="none" stroke="gray" d="M658,-268C658,-274 652,-280 646,-280"/>
<polyline fill="none" stroke="gray" points="646,-280 522,-280 "/>
<path fill="none" stroke="gray" d="M522,-280C516,-280 510,-274 510,-268"/>
<polyline fill="none" stroke="gray" points="510,-268 510,-218 "/>
<path fill="none" stroke="gray" d="M510,-218C510,-212 516,-206 522,-206"/>
<text text-anchor="middle" x="584" y="-266.1" font-family="Times Roman,serif" font-size="11.00" fill="gray">LinkedLists</text>
</g>
<!-- \\Data\\LinkedLists\\IDoublyLinkedList -->
<g id="node3" class="node"><title>\\Data\\LinkedLists\\IDoublyLinkedList</title>
<a xlink:href="LinkedLists.IDoublyLinkedList.html" xlink:title="IDoublyLinkedList" target="_parent">
<polygon fill="none" stroke="black" points="649,-250 519,-250 519,-214 649,-214 649,-250"/>
<text text-anchor="middle" x="584" y="-229.1" font-family="Courier,monospace" font-size="11.00">IDoublyLinkedList</text>
</a>
</g>
<!-- \\Data\\LinkedLists\\ILinkedList -->
<g id="node14" class="node"><title>\\Data\\LinkedLists\\ILinkedList</title>
<ellipse fill="none" stroke="black" cx="294" cy="-72" rx="152.028" ry="18.3848"/>
<text text-anchor="middle" x="294" y="-68.4" font-family="Times Roman,serif" font-size="14.00" fill="gray">\Data\LinkedLists\ILinkedList</text>
</g>
<!-- \\Data\\LinkedLists\\IDoublyLinkedList&#45;&gt;\\Data\\LinkedLists\\ILinkedList -->
<g id="edge10" class="edge"><title>\\Data\\LinkedLists\\IDoublyLinkedList&#45;&gt;\\Data\\LinkedLists\\ILinkedList</title>
<path fill="none" stroke="black" d="M518.355,-215.721C515.416,-214.002 512.61,-212.101 510,-210 464.134,-173.076 494.424,-127.499 446,-94 441.59,-90.9495 436.936,-88.2425 432.101,-85.8439"/>
<polygon fill="none" stroke="black" points="433.159,-82.4832 422.601,-81.602 430.305,-88.875 433.159,-82.4832"/>
</g>
<!-- \\Data\\IIterator -->
<g id="node4" class="node"><title>\\Data\\IIterator</title>
<a xlink:href="IIterator.html" xlink:title="IIterator" target="_parent">
<polygon fill="none" stroke="black" points="622,-142 546,-142 546,-106 622,-106 622,-142"/>
<text text-anchor="middle" x="584" y="-121.1" font-family="Courier,monospace" font-size="11.00">IIterator</text>
</a>
</g>
<!-- \\Iterator -->
<g id="node10" class="node"><title>\\Iterator</title>
<ellipse fill="none" stroke="black" cx="294" cy="-18" rx="51.8276" ry="18.3848"/>
<text text-anchor="middle" x="294" y="-14.4" font-family="Times Roman,serif" font-size="14.00" fill="gray">\Iterator</text>
</g>
<!-- \\Data\\IIterator&#45;&gt;\\Iterator -->
<g id="edge4" class="edge"><title>\\Data\\IIterator&#45;&gt;\\Iterator</title>
<path fill="none" stroke="black" d="M558.355,-105.696C531.594,-87.4914 487.784,-60.1512 446,-45 416.939,-34.4623 383.211,-27.9394 354.92,-23.9525"/>
<polygon fill="none" stroke="black" points="355.137,-20.4505 344.762,-22.5957 354.211,-27.3889 355.137,-20.4505"/>
</g>
<!-- \\Data\\IteratorMode -->
<g id="node5" class="node"><title>\\Data\\IteratorMode</title>
<a xlink:href="IteratorMode.html" xlink:title="IteratorMode" target="_parent">
<polygon fill="none" stroke="black" points="633,-196 535,-196 535,-160 633,-160 633,-196"/>
<text text-anchor="middle" x="584" y="-175.1" font-family="Courier,monospace" font-size="11.00">IteratorMode</text>
</a>
</g>
<!-- \\Data\\ILinkedNode -->
<g id="node6" class="node"><title>\\Data\\ILinkedNode</title>
<a xlink:href="ILinkedNode.html" xlink:title="ILinkedNode" target="_parent">
<polygon fill="none" stroke="black" points="339,-324 249,-324 249,-288 339,-288 339,-324"/>
<text text-anchor="middle" x="294" y="-303.1" font-family="Courier,monospace" font-size="11.00">ILinkedNode</text>
</a>
</g>
<!-- \\Data\\INode -->
<g id="node8" class="node"><title>\\Data\\INode</title>
<a xlink:href="INode.html" xlink:title="INode" target="_parent">
<polygon fill="none" stroke="black" points="70,-324 16,-324 16,-288 70,-288 70,-324"/>
<text text-anchor="middle" x="43" y="-303.1" font-family="Courier,monospace" font-size="11.00">INode</text>
</a>
</g>
<!-- \\Data\\ILinkedNode&#45;&gt;\\Data\\INode -->
<g id="edge6" class="edge"><title>\\Data\\ILinkedNode&#45;&gt;\\Data\\INode</title>
<path fill="none" stroke="black" d="M248.255,-306C200.081,-306 125.138,-306 80.3801,-306"/>
<polygon fill="none" stroke="black" points="80.227,-302.5 70.2269,-306 80.2269,-309.5 80.227,-302.5"/>
</g>
<!-- \\Data\\IDoublyLinkedNode -->
<g id="node7" class="node"><title>\\Data\\IDoublyLinkedNode</title>
<a xlink:href="IDoublyLinkedNode.html" xlink:title="IDoublyLinkedNode" target="_parent">
<polygon fill="none" stroke="black" points="649,-324 519,-324 519,-288 649,-288 649,-324"/>
<text text-anchor="middle" x="584" y="-303.1" font-family="Courier,monospace" font-size="11.00">IDoublyLinkedNode</text>
</a>
</g>
<!-- \\Data\\IDoublyLinkedNode&#45;&gt;\\Data\\ILinkedNode -->
<g id="edge8" class="edge"><title>\\Data\\IDoublyLinkedNode&#45;&gt;\\Data\\ILinkedNode</title>
<path fill="none" stroke="black" d="M518.195,-306C467.44,-306 398.011,-306 349.922,-306"/>
<polygon fill="none" stroke="black" points="349.696,-302.5 339.696,-306 349.696,-309.5 349.696,-302.5"/>
</g>
</g>
</svg>
