<?xml version="1.0" encoding="UTF-8" standalone="no"?>
<!DOCTYPE svg PUBLIC "-//W3C//DTD SVG 1.1//EN"
 "http://www.w3.org/Graphics/SVG/1.1/DTD/svg11.dtd">
<!-- Generated by graphviz version 2.26.3 (20100126.1600)
 -->
<!-- Title: G Pages: 1 -->
<svg width="788pt" height="478pt"
 viewBox="0.00 0.00 788.00 478.00" xmlns="http://www.w3.org/2000/svg" xmlns:xlink="http://www.w3.org/1999/xlink">
<g id="graph1" class="graph" transform="scale(1 1) rotate(0) translate(4 474)">
<title>G</title>
<polygon fill="white" stroke="white" points="-4,5 -4,-474 785,-474 785,5 -4,5"/>
<g id="graph2" class="cluster"><title>cluster_Data</title>
<polyline fill="none" stroke="gray" points="20,-98 760,-98 "/>
<path fill="none" stroke="gray" d="M760,-98C766,-98 772,-104 772,-110"/>
<polyline fill="none" stroke="gray" points="772,-110 772,-450 "/>
<path fill="none" stroke="gray" d="M772,-450C772,-456 766,-462 760,-462"/>
<polyline fill="none" stroke="gray" points="760,-462 20,-462 "/>
<path fill="none" stroke="gray" d="M20,-462C14,-462 8,-456 8,-450"/>
<polyline fill="none" stroke="gray" points="8,-450 8,-110 "/>
<path fill="none" stroke="gray" d="M8,-110C8,-104 14,-98 20,-98"/>
<text text-anchor="middle" x="390" y="-448.1" font-family="Times Roman,serif" font-size="11.00" fill="gray">Data</text>
</g>
<g id="graph3" class="cluster"><title>cluster_Data\LinkedLists</title>
<polyline fill="none" stroke="gray" points="444,-206 752,-206 "/>
<path fill="none" stroke="gray" d="M752,-206C758,-206 764,-212 764,-218"/>
<polyline fill="none" stroke="gray" points="764,-218 764,-322 "/>
<path fill="none" stroke="gray" d="M764,-322C764,-328 758,-334 752,-334"/>
<polyline fill="none" stroke="gray" points="752,-334 444,-334 "/>
<path fill="none" stroke="gray" d="M444,-334C438,-334 432,-328 432,-322"/>
<polyline fill="none" stroke="gray" points="432,-322 432,-218 "/>
<path fill="none" stroke="gray" d="M432,-218C432,-212 438,-206 444,-206"/>
<text text-anchor="middle" x="598" y="-320.1" font-family="Times Roman,serif" font-size="11.00" fill="gray">LinkedLists</text>
</g>
<!-- \\Data\\LinkedLists\\ILinkedList -->
<g id="node3" class="node"><title>\\Data\\LinkedLists\\ILinkedList</title>
<a xlink:href="LinkedLists.ILinkedList.html" xlink:title="ILinkedList" target="_parent">
<polygon fill="none" stroke="black" points="531,-250 441,-250 441,-214 531,-214 531,-250"/>
<text text-anchor="middle" x="486" y="-229.1" font-family="Courier,monospace" font-size="11.00">ILinkedList</text>
</a>
</g>
<!-- \\Countable -->
<g id="node19" class="node"><title>\\Countable</title>
<ellipse fill="none" stroke="black" cx="245" cy="-72" rx="65.0538" ry="18.3848"/>
<text text-anchor="middle" x="245" y="-68.4" font-family="Times Roman,serif" font-size="14.00" fill="gray">\Countable</text>
</g>
<!-- \\Data\\LinkedLists\\ILinkedList&#45;&gt;\\Countable -->
<g id="edge10" class="edge"><title>\\Data\\LinkedLists\\ILinkedList&#45;&gt;\\Countable</title>
<path fill="none" stroke="black" d="M440.206,-221.383C433.001,-218.444 425.971,-214.716 420,-210 372.383,-172.389 397.636,-128.904 348,-94 338.803,-87.5327 328.082,-82.9029 317.099,-79.6011"/>
<polygon fill="none" stroke="black" points="317.976,-76.2126 307.413,-77.0285 316.179,-82.9781 317.976,-76.2126"/>
</g>
<!-- \\IteratorAggregate -->
<g id="node21" class="node"><title>\\IteratorAggregate</title>
<ellipse fill="none" stroke="black" cx="245" cy="-18" rx="103.238" ry="18.3848"/>
<text text-anchor="middle" x="245" y="-14.4" font-family="Times Roman,serif" font-size="14.00" fill="gray">\IteratorAggregate</text>
</g>
<!-- \\Data\\LinkedLists\\ILinkedList&#45;&gt;\\IteratorAggregate -->
<g id="edge12" class="edge"><title>\\Data\\LinkedLists\\ILinkedList&#45;&gt;\\IteratorAggregate</title>
<path fill="none" stroke="black" d="M440.281,-222.38C432.902,-219.322 425.795,-215.297 420,-210 360.944,-156.017 408.789,-97.0236 348,-45 343.115,-40.8194 337.656,-37.2764 331.869,-34.2748"/>
<polygon fill="none" stroke="black" points="333.09,-30.9839 322.542,-29.9901 330.168,-37.3449 333.09,-30.9839"/>
</g>
<!-- \\Data\\LinkedLists\\LinkedList -->
<g id="node4" class="node"><title>\\Data\\LinkedLists\\LinkedList</title>
<a xlink:href="LinkedLists.LinkedList.html" xlink:title="LinkedList" target="_parent">
<polygon fill="none" stroke="black" points="732,-304 648,-304 648,-268 732,-268 732,-304"/>
<text text-anchor="middle" x="690" y="-283.1" font-family="Courier,monospace" font-size="11.00">LinkedList</text>
</a>
</g>
<!-- \\Data\\LinkedLists\\LinkedList&#45;&gt;\\Data\\LinkedLists\\ILinkedList -->
<g id="edge20" class="edge"><title>\\Data\\LinkedLists\\LinkedList&#45;&gt;\\Data\\LinkedLists\\ILinkedList</title>
<path fill="none" stroke="black" stroke-dasharray="1,5" d="M647.731,-274.811C617.06,-266.692 575.262,-255.628 541.843,-246.782"/>
<polygon fill="none" stroke="black" points="542.324,-243.289 531.762,-244.113 540.533,-250.056 542.324,-243.289"/>
</g>
<!-- \\Data\\LinkedLists\\IDoublyLinkedList -->
<g id="node5" class="node"><title>\\Data\\LinkedLists\\IDoublyLinkedList</title>
<a xlink:href="LinkedLists.IDoublyLinkedList.html" xlink:title="IDoublyLinkedList" target="_parent">
<polygon fill="none" stroke="black" points="755,-250 625,-250 625,-214 755,-214 755,-250"/>
<text text-anchor="middle" x="690" y="-229.1" font-family="Courier,monospace" font-size="11.00">IDoublyLinkedList</text>
</a>
</g>
<!-- \\Data\\LinkedLists\\IDoublyLinkedList&#45;&gt;\\Data\\LinkedLists\\ILinkedList -->
<g id="edge14" class="edge"><title>\\Data\\LinkedLists\\IDoublyLinkedList&#45;&gt;\\Data\\LinkedLists\\ILinkedList</title>
<path fill="none" stroke="black" d="M624.33,-232C597.714,-232 567.301,-232 541.782,-232"/>
<polygon fill="none" stroke="black" points="541.536,-228.5 531.536,-232 541.536,-235.5 541.536,-228.5"/>
</g>
<!-- \\Data\\IIterator -->
<g id="node6" class="node"><title>\\Data\\IIterator</title>
<a xlink:href="IIterator.html" xlink:title="IIterator" target="_parent">
<polygon fill="none" stroke="black" points="728,-142 652,-142 652,-106 728,-106 728,-142"/>
<text text-anchor="middle" x="690" y="-121.1" font-family="Courier,monospace" font-size="11.00">IIterator</text>
</a>
</g>
<!-- \\Iterator -->
<g id="node15" class="node"><title>\\Iterator</title>
<ellipse fill="none" stroke="black" cx="486" cy="-72" rx="51.8276" ry="18.3848"/>
<text text-anchor="middle" x="486" y="-68.4" font-family="Times Roman,serif" font-size="14.00" fill="gray">\Iterator</text>
</g>
<!-- \\Data\\IIterator&#45;&gt;\\Iterator -->
<g id="edge4" class="edge"><title>\\Data\\IIterator&#45;&gt;\\Iterator</title>
<path fill="none" stroke="black" d="M651.149,-114.097C619.163,-105.944 573.518,-94.3085 538.318,-85.336"/>
<polygon fill="none" stroke="black" points="538.777,-81.8412 528.223,-82.7626 537.048,-88.6243 538.777,-81.8412"/>
</g>
<!-- \\Data\\IteratorMode -->
<g id="node7" class="node"><title>\\Data\\IteratorMode</title>
<a xlink:href="IteratorMode.html" xlink:title="IteratorMode" target="_parent">
<polygon fill="none" stroke="black" points="739,-196 641,-196 641,-160 739,-160 739,-196"/>
<text text-anchor="middle" x="690" y="-175.1" font-family="Courier,monospace" font-size="11.00">IteratorMode</text>
</a>
</g>
<!-- \\Data\\ILinkedNode -->
<g id="node8" class="node"><title>\\Data\\ILinkedNode</title>
<a xlink:href="ILinkedNode.html" xlink:title="ILinkedNode" target="_parent">
<polygon fill="none" stroke="black" points="290,-378 200,-378 200,-342 290,-342 290,-378"/>
<text text-anchor="middle" x="245" y="-357.1" font-family="Courier,monospace" font-size="11.00">ILinkedNode</text>
</a>
</g>
<!-- \\Data\\INode -->
<g id="node12" class="node"><title>\\Data\\INode</title>
<a xlink:href="INode.html" xlink:title="INode" target="_parent">
<polygon fill="none" stroke="black" points="70,-405 16,-405 16,-369 70,-369 70,-405"/>
<text text-anchor="middle" x="43" y="-384.1" font-family="Courier,monospace" font-size="11.00">INode</text>
</a>
</g>
<!-- \\Data\\ILinkedNode&#45;&gt;\\Data\\INode -->
<g id="edge6" class="edge"><title>\\Data\\ILinkedNode&#45;&gt;\\Data\\INode</title>
<path fill="none" stroke="black" d="M199.415,-366.093C163.506,-370.893 114.06,-377.502 80.4408,-381.996"/>
<polygon fill="none" stroke="black" points="79.567,-378.581 70.1189,-383.375 80.4945,-385.519 79.567,-378.581"/>
</g>
<!-- \\Data\\LinkedNode -->
<g id="node9" class="node"><title>\\Data\\LinkedNode</title>
<a xlink:href="LinkedNode.html" xlink:title="LinkedNode" target="_parent">
<polygon fill="none" stroke="black" points="528,-378 444,-378 444,-342 528,-342 528,-378"/>
<text text-anchor="middle" x="486" y="-357.1" font-family="Courier,monospace" font-size="11.00">LinkedNode</text>
</a>
</g>
<!-- \\Data\\LinkedNode&#45;&gt;\\Data\\ILinkedNode -->
<g id="edge16" class="edge"><title>\\Data\\LinkedNode&#45;&gt;\\Data\\ILinkedNode</title>
<path fill="none" stroke="black" stroke-dasharray="1,5" d="M443.745,-360C404.128,-360 344.63,-360 301.058,-360"/>
<polygon fill="none" stroke="black" points="300.905,-356.5 290.905,-360 300.905,-363.5 300.905,-356.5"/>
</g>
<!-- \\Data\\IDoublyLinkedNode -->
<g id="node10" class="node"><title>\\Data\\IDoublyLinkedNode</title>
<a xlink:href="IDoublyLinkedNode.html" xlink:title="IDoublyLinkedNode" target="_parent">
<polygon fill="none" stroke="black" points="551,-432 421,-432 421,-396 551,-396 551,-432"/>
<text text-anchor="middle" x="486" y="-411.1" font-family="Courier,monospace" font-size="11.00">IDoublyLinkedNode</text>
</a>
</g>
<!-- \\Data\\IDoublyLinkedNode&#45;&gt;\\Data\\ILinkedNode -->
<g id="edge8" class="edge"><title>\\Data\\IDoublyLinkedNode&#45;&gt;\\Data\\ILinkedNode</title>
<path fill="none" stroke="black" d="M420.464,-399.316C382.879,-390.894 336.215,-380.438 300.46,-372.427"/>
<polygon fill="none" stroke="black" points="301.204,-369.007 290.681,-370.235 299.673,-375.837 301.204,-369.007"/>
</g>
<!-- \\Data\\Node -->
<g id="node11" class="node"><title>\\Data\\Node</title>
<a xlink:href="Node.html" xlink:title="Node" target="_parent">
<polygon fill="none" stroke="black" points="272,-432 218,-432 218,-396 272,-396 272,-432"/>
<text text-anchor="middle" x="245" y="-411.1" font-family="Courier,monospace" font-size="11.00">Node</text>
</a>
</g>
<!-- \\Data\\Node&#45;&gt;\\Data\\INode -->
<g id="edge18" class="edge"><title>\\Data\\Node&#45;&gt;\\Data\\INode</title>
<path fill="none" stroke="black" stroke-dasharray="1,5" d="M217.757,-410.359C182.268,-405.615 120.064,-397.301 80.2384,-391.977"/>
<polygon fill="none" stroke="black" points="80.5084,-388.482 70.1328,-390.627 79.581,-395.421 80.5084,-388.482"/>
</g>
<!-- \\Data\\DoublyLinkedNode -->
<g id="node13" class="node"><title>\\Data\\DoublyLinkedNode</title>
<a xlink:href="DoublyLinkedNode.html" xlink:title="DoublyLinkedNode" target="_parent">
<polygon fill="none" stroke="black" points="752,-432 628,-432 628,-396 752,-396 752,-432"/>
<text text-anchor="middle" x="690" y="-411.1" font-family="Courier,monospace" font-size="11.00">DoublyLinkedNode</text>
</a>
</g>
<!-- \\Data\\DoublyLinkedNode&#45;&gt;\\Data\\IDoublyLinkedNode -->
<g id="edge22" class="edge"><title>\\Data\\DoublyLinkedNode&#45;&gt;\\Data\\IDoublyLinkedNode</title>
<path fill="none" stroke="black" stroke-dasharray="1,5" d="M627.407,-414C606.679,-414 583.386,-414 561.778,-414"/>
<polygon fill="none" stroke="black" points="561.655,-410.5 551.655,-414 561.655,-417.5 561.655,-410.5"/>
</g>
</g>
</svg>
