<?xml version="1.0" encoding="UTF-8" standalone="no"?>
<!DOCTYPE svg PUBLIC "-//W3C//DTD SVG 1.1//EN"
 "http://www.w3.org/Graphics/SVG/1.1/DTD/svg11.dtd">
<!-- Generated by graphviz version 2.26.3 (20100126.1600)
 -->
<!-- Title: G Pages: 1 -->
<svg width="880pt" height="424pt"
 viewBox="0.00 0.00 880.00 424.00" xmlns="http://www.w3.org/2000/svg" xmlns:xlink="http://www.w3.org/1999/xlink">
<g id="graph1" class="graph" transform="scale(1 1) rotate(0) translate(4 420)">
<title>G</title>
<polygon fill="white" stroke="white" points="-4,5 -4,-420 877,-420 877,5 -4,5"/>
<g id="graph2" class="cluster"><title>cluster_Data</title>
<polyline fill="none" stroke="gray" points="20,-44 852,-44 "/>
<path fill="none" stroke="gray" d="M852,-44C858,-44 864,-50 864,-56"/>
<polyline fill="none" stroke="gray" points="864,-56 864,-396 "/>
<path fill="none" stroke="gray" d="M864,-396C864,-402 858,-408 852,-408"/>
<polyline fill="none" stroke="gray" points="852,-408 20,-408 "/>
<path fill="none" stroke="gray" d="M20,-408C14,-408 8,-402 8,-396"/>
<polyline fill="none" stroke="gray" points="8,-396 8,-56 "/>
<path fill="none" stroke="gray" d="M8,-56C8,-50 14,-44 20,-44"/>
<text text-anchor="middle" x="436" y="-394.1" font-family="Times Roman,serif" font-size="11.00" fill="gray">Data</text>
</g>
<g id="graph3" class="cluster"><title>cluster_Data\LinkedLists</title>
<polyline fill="none" stroke="gray" points="522,-152 844,-152 "/>
<path fill="none" stroke="gray" d="M844,-152C850,-152 856,-158 856,-164"/>
<polyline fill="none" stroke="gray" points="856,-164 856,-268 "/>
<path fill="none" stroke="gray" d="M856,-268C856,-274 850,-280 844,-280"/>
<polyline fill="none" stroke="gray" points="844,-280 522,-280 "/>
<path fill="none" stroke="gray" d="M522,-280C516,-280 510,-274 510,-268"/>
<polyline fill="none" stroke="gray" points="510,-268 510,-164 "/>
<path fill="none" stroke="gray" d="M510,-164C510,-158 516,-152 522,-152"/>
<text text-anchor="middle" x="683" y="-266.1" font-family="Times Roman,serif" font-size="11.00" fill="gray">LinkedLists</text>
</g>
<!-- \\Data\\LinkedLists\\IDoublyLinkedList -->
<g id="node3" class="node"><title>\\Data\\LinkedLists\\IDoublyLinkedList</title>
<a xlink:href="LinkedLists.IDoublyLinkedList.html" xlink:title="IDoublyLinkedList" target="_parent">
<polygon fill="none" stroke="black" points="649,-223 519,-223 519,-187 649,-187 649,-223"/>
<text text-anchor="middle" x="584" y="-202.1" font-family="Courier,monospace" font-size="11.00">IDoublyLinkedList</text>
</a>
</g>
<!-- \\Data\\LinkedLists\\ILinkedList -->
<g id="node18" class="node"><title>\\Data\\LinkedLists\\ILinkedList</title>
<ellipse fill="none" stroke="black" cx="294" cy="-18" rx="152.028" ry="18.3848"/>
<text text-anchor="middle" x="294" y="-14.4" font-family="Times Roman,serif" font-size="14.00" fill="gray">\Data\LinkedLists\ILinkedList</text>
</g>
<!-- \\Data\\LinkedLists\\IDoublyLinkedList&#45;&gt;\\Data\\LinkedLists\\ILinkedList -->
<g id="edge10" class="edge"><title>\\Data\\LinkedLists\\IDoublyLinkedList&#45;&gt;\\Data\\LinkedLists\\ILinkedList</title>
<path fill="none" stroke="black" d="M518.482,-189.196C515.473,-187.353 512.621,-185.296 510,-183 457.627,-137.114 501.564,-81.9651 446,-40 442.02,-36.9944 437.811,-34.3106 433.427,-31.9176"/>
<polygon fill="none" stroke="black" points="434.72,-28.6538 424.199,-27.4039 431.644,-34.9419 434.72,-28.6538"/>
</g>
<!-- \\Data\\LinkedLists\\SingleLinkedList -->
<g id="node4" class="node"><title>\\Data\\LinkedLists\\SingleLinkedList</title>
<a xlink:href="LinkedLists.SingleLinkedList.html" xlink:title="SingleLinkedList" target="_parent">
<polygon fill="none" stroke="black" points="847,-196 723,-196 723,-160 847,-160 847,-196"/>
<text text-anchor="middle" x="785" y="-175.1" font-family="Courier,monospace" font-size="11.00">SingleLinkedList</text>
</a>
</g>
<!-- \\Data\\LinkedLists\\SingleLinkedList&#45;&gt;\\Data\\LinkedLists\\ILinkedList -->
<g id="edge12" class="edge"><title>\\Data\\LinkedLists\\SingleLinkedList&#45;&gt;\\Data\\LinkedLists\\ILinkedList</title>
<path fill="none" stroke="black" stroke-dasharray="1,5" d="M732.317,-159.875C728.817,-158.587 725.352,-157.288 722,-156 597.797,-108.265 574.211,-75.5948 446,-40 435.673,-37.1329 424.842,-34.6238 413.919,-32.431"/>
<polygon fill="none" stroke="black" points="414.354,-28.9508 403.874,-30.5048 413.036,-35.8255 414.354,-28.9508"/>
</g>
<!-- \\Data\\LinkedLists\\DoubleLinkedList -->
<g id="node5" class="node"><title>\\Data\\LinkedLists\\DoubleLinkedList</title>
<a xlink:href="LinkedLists.DoubleLinkedList.html" xlink:title="DoubleLinkedList" target="_parent">
<polygon fill="none" stroke="black" points="847,-250 723,-250 723,-214 847,-214 847,-250"/>
<text text-anchor="middle" x="785" y="-229.1" font-family="Courier,monospace" font-size="11.00">DoubleLinkedList</text>
</a>
</g>
<!-- \\Data\\LinkedLists\\DoubleLinkedList&#45;&gt;\\Data\\LinkedLists\\IDoublyLinkedList -->
<g id="edge14" class="edge"><title>\\Data\\LinkedLists\\DoubleLinkedList&#45;&gt;\\Data\\LinkedLists\\IDoublyLinkedList</title>
<path fill="none" stroke="black" stroke-dasharray="1,5" d="M722.229,-223.568C702.431,-220.909 680.349,-217.942 659.746,-215.175"/>
<polygon fill="none" stroke="black" points="660.144,-211.697 649.767,-213.834 659.212,-218.635 660.144,-211.697"/>
</g>
<!-- \\Data\\IIterator -->
<g id="node6" class="node"><title>\\Data\\IIterator</title>
<a xlink:href="IIterator.html" xlink:title="IIterator" target="_parent">
<polygon fill="none" stroke="black" points="823,-88 747,-88 747,-52 823,-52 823,-88"/>
<text text-anchor="middle" x="785" y="-67.1" font-family="Courier,monospace" font-size="11.00">IIterator</text>
</a>
</g>
<!-- \\Iterator -->
<g id="node14" class="node"><title>\\Iterator</title>
<ellipse fill="none" stroke="black" cx="584" cy="-18" rx="51.8276" ry="18.3848"/>
<text text-anchor="middle" x="584" y="-14.4" font-family="Times Roman,serif" font-size="14.00" fill="gray">\Iterator</text>
</g>
<!-- \\Data\\IIterator&#45;&gt;\\Iterator -->
<g id="edge4" class="edge"><title>\\Data\\IIterator&#45;&gt;\\Iterator</title>
<path fill="none" stroke="black" d="M746.245,-59.9739C714.889,-51.8618 670.439,-40.3624 635.992,-31.4507"/>
<polygon fill="none" stroke="black" points="636.663,-28.0092 626.106,-28.893 634.91,-34.7861 636.663,-28.0092"/>
</g>
<!-- \\Data\\IteratorMode -->
<g id="node7" class="node"><title>\\Data\\IteratorMode</title>
<a xlink:href="IteratorMode.html" xlink:title="IteratorMode" target="_parent">
<polygon fill="none" stroke="black" points="834,-142 736,-142 736,-106 834,-106 834,-142"/>
<text text-anchor="middle" x="785" y="-121.1" font-family="Courier,monospace" font-size="11.00">IteratorMode</text>
</a>
</g>
<!-- \\Data\\ILinkedNode -->
<g id="node8" class="node"><title>\\Data\\ILinkedNode</title>
<a xlink:href="ILinkedNode.html" xlink:title="ILinkedNode" target="_parent">
<polygon fill="none" stroke="black" points="339,-351 249,-351 249,-315 339,-315 339,-351"/>
<text text-anchor="middle" x="294" y="-330.1" font-family="Courier,monospace" font-size="11.00">ILinkedNode</text>
</a>
</g>
<!-- \\Data\\INode -->
<g id="node12" class="node"><title>\\Data\\INode</title>
<a xlink:href="INode.html" xlink:title="INode" target="_parent">
<polygon fill="none" stroke="black" points="70,-351 16,-351 16,-315 70,-315 70,-351"/>
<text text-anchor="middle" x="43" y="-330.1" font-family="Courier,monospace" font-size="11.00">INode</text>
</a>
</g>
<!-- \\Data\\ILinkedNode&#45;&gt;\\Data\\INode -->
<g id="edge6" class="edge"><title>\\Data\\ILinkedNode&#45;&gt;\\Data\\INode</title>
<path fill="none" stroke="black" d="M248.255,-333C200.081,-333 125.138,-333 80.3801,-333"/>
<polygon fill="none" stroke="black" points="80.227,-329.5 70.2269,-333 80.2269,-336.5 80.227,-329.5"/>
</g>
<!-- \\Data\\IDoublyLinkedNode -->
<g id="node9" class="node"><title>\\Data\\IDoublyLinkedNode</title>
<a xlink:href="IDoublyLinkedNode.html" xlink:title="IDoublyLinkedNode" target="_parent">
<polygon fill="none" stroke="black" points="649,-324 519,-324 519,-288 649,-288 649,-324"/>
<text text-anchor="middle" x="584" y="-303.1" font-family="Courier,monospace" font-size="11.00">IDoublyLinkedNode</text>
</a>
</g>
<!-- \\Data\\IDoublyLinkedNode&#45;&gt;\\Data\\ILinkedNode -->
<g id="edge8" class="edge"><title>\\Data\\IDoublyLinkedNode&#45;&gt;\\Data\\ILinkedNode</title>
<path fill="none" stroke="black" d="M518.195,-312.127C467.44,-316.852 398.011,-323.316 349.922,-327.794"/>
<polygon fill="none" stroke="black" points="349.329,-324.333 339.696,-328.746 349.978,-331.303 349.329,-324.333"/>
</g>
<!-- \\Data\\DoubleLinkedNode -->
<g id="node10" class="node"><title>\\Data\\DoubleLinkedNode</title>
<a xlink:href="DoubleLinkedNode.html" xlink:title="DoubleLinkedNode" target="_parent">
<polygon fill="none" stroke="black" points="847,-324 723,-324 723,-288 847,-288 847,-324"/>
<text text-anchor="middle" x="785" y="-303.1" font-family="Courier,monospace" font-size="11.00">DoubleLinkedNode</text>
</a>
</g>
<!-- \\Data\\DoubleLinkedNode&#45;&gt;\\Data\\IDoublyLinkedNode -->
<g id="edge16" class="edge"><title>\\Data\\DoubleLinkedNode&#45;&gt;\\Data\\IDoublyLinkedNode</title>
<path fill="none" stroke="black" stroke-dasharray="1,5" d="M722.229,-306C702.521,-306 680.549,-306 660.027,-306"/>
<polygon fill="none" stroke="black" points="659.767,-302.5 649.767,-306 659.767,-309.5 659.767,-302.5"/>
</g>
<!-- \\Data\\SingleLinkedNode -->
<g id="node11" class="node"><title>\\Data\\SingleLinkedNode</title>
<a xlink:href="SingleLinkedNode.html" xlink:title="SingleLinkedNode" target="_parent">
<polygon fill="none" stroke="black" points="646,-378 522,-378 522,-342 646,-342 646,-378"/>
<text text-anchor="middle" x="584" y="-357.1" font-family="Courier,monospace" font-size="11.00">SingleLinkedNode</text>
</a>
</g>
<!-- \\Data\\SingleLinkedNode&#45;&gt;\\Data\\ILinkedNode -->
<g id="edge18" class="edge"><title>\\Data\\SingleLinkedNode&#45;&gt;\\Data\\ILinkedNode</title>
<path fill="none" stroke="black" stroke-dasharray="1,5" d="M521.431,-354.175C470.444,-349.427 399.093,-342.784 349.975,-338.211"/>
<polygon fill="none" stroke="black" points="350.128,-334.711 339.846,-337.268 349.479,-341.68 350.128,-334.711"/>
</g>
</g>
</svg>
